<?xml version="1.0" encoding="utf-8"?>
<!-- Generator: Adobe Illustrator 21.1.0, SVG Export Plug-In . SVG Version: 6.00 Build 0)  -->
<svg version="1.1" id="圖層_1" xmlns="http://www.w3.org/2000/svg" xmlns:xlink="http://www.w3.org/1999/xlink" x="0px" y="0px"
	 viewBox="0 0 90.7 56.7" style="enable-background:new 0 0 90.7 56.7;" xml:space="preserve">
<style type="text/css">
	.st0{fill-rule:evenodd;clip-rule:evenodd;fill:#050404;}
</style>
<g>
	<path class="st0" d="M50.8,32.3c0,1.8,1.5,1.9,3,1.9h0c2.9,0,5.4,0.2,5.4,3.3v1.9c0,3.1-2.5,3.3-5.4,3.3h0c-2.9,0-5.4-0.2-5.4-3.3
		l0,0v-1.9h2.4v1.9l0,0c0,1.8,1.5,1.9,3,1.9h0c1.4,0,3-0.1,3-1.9v-1.9c0-1.8-1.5-1.9-3-1.9h0c-2.9,0-5.4-0.2-5.4-3.3v-0.7l0,0
		c0-3.1,2.5-3.3,5.4-3.3h0c2.9,0,5.4,0.2,5.4,3.3v1.1h-2.4v-1.1c0-1.8-1.5-1.9-3-1.9h0c-1.4,0-3,0.1-3,1.9l0,0V32.3z"/>
	<path class="st0" d="M66.8,14.5v14.1c0.9-0.2,1.9-0.2,3-0.2l0,0c2.9,0,5.4,0.2,5.4,3.3l0,0v11h-2.4v-11l0,0c0-1.8-1.5-1.9-3-1.9
		l0,0c-1.4,0-3,0.1-3,1.9v11h-2.4V14.5H66.8z"/>
	<rect x="80.5" y="28.5" class="st0" width="2.4" height="14.1"/>
	<rect x="80.5" y="21.4" class="st0" width="2.4" height="4.8"/>
	<path class="st0" d="M43,31.6c0-3.1-2.5-3.3-5.4-3.3c-2.9,0-5.4,0.2-5.4,3.3v7.7c0,3.1,2.5,3.3,5.4,3.3c2.9,0,5.4-0.2,5.4-3.3l0,0
		V31.6L43,31.6z M40.6,39.3L40.6,39.3c0,1.8-1.5,1.9-3,1.9c-1.4,0-3-0.1-3-1.9v-7.7c0-1.8,1.5-1.9,3-1.9c1.4,0,3,0.1,3,1.9h0V39.3z"
		/>
	<path class="st0" d="M10.3,31.6c0-1.8,1.5-1.9,3-1.9l0,0c1.4,0,3,0.1,3,1.9h0v11h2.4v-11c0-1.8,1.5-1.9,3-1.9l0,0
		c1.4,0,3,0.1,3,1.9v11h2.4v-11c0-3.1-2.5-3.3-5.4-3.3l0,0c-1.7,0-3.2,0.1-4.2,0.7l0,0c-1-0.6-2.5-0.7-4.2-0.7l0,0
		c-2.9,0-5.4,0.2-5.4,3.3h0v11h2.4L10.3,31.6L10.3,31.6z"/>
</g>
</svg>
